{
  "accessors": [
    {
      "bufferView": 2,
      "componentType": 5126,
      "count": 65532,
      "max": [
        1.2412919998168945,
        11.943272590637207,
        1.5630819797515869
      ],
      "min": [
        -1.5589159727096558,
        8.4641857147216797,
        -1.0175039768218994
      ],
      "type": "VEC3"
    },
    {
      "bufferView": 2,
      "byteOffset": 786384,
      "componentType": 5126,
      "count": 65532,
      "max": [
        0.99998503923416138,
        0.99992066621780396,
        0.99978947639465332
      ],
      "min": [
        -0.99993163347244263,
        -0.99998873472213745,
        -0.99995511770248413
      ],
      "type": "VEC3"
    },
    {
      "bufferView": 1,
      "componentType": 5126,
      "count": 65532,
      "max": [
        1,
        0.99265998601913452
      ],
      "min": [
        0,
        0
      ],
      "type": "VEC2"
    },
    {
      "bufferView": 0,
      "componentType": 5125,
      "count": 287865,
      "max": [
        65531
      ],
      "min": [
        0
      ],
      "type": "SCALAR"
    },
    {
      "bufferView": 2,
      "byteOffset": 1572768,
      "componentType": 5126,
      "count": 65532,
      "max": [
        1.1148380041122437,
        11.387500762939453,
        1.1893719434738159
      ],
      "min": [
        -0.16493000090122223,
        8.4948921203613281,
        -1.0237139463424683
      ],
      "type": "VEC3"
    },
    {
      "bufferView": 2,
      "byteOffset": 2359152,
      "componentType": 5126,
      "count": 65532,
      "max": [
        0.99998509883880615,
        0.9999961256980896,
        0.99973869323730469
      ],
      "min": [
        -0.99999034404754639,
        -0.99984180927276611,
        -0.99991953372955322
      ],
      "type": "VEC3"
    },
    {
      "bufferView": 1,
      "byteOffset": 524256,
      "componentType": 5126,
      "count": 65532,
      "max": [
        0.99815702438354492,
        0.98702597618103027
      ],
      "min": [
        0.00058100000023841858,
        0.010641999542713165
      ],
      "type": "VEC2"
    },
    {
      "bufferView": 0,
      "byteOffset": 1151460,
      "componentType": 5125,
      "count": 305913,
      "max": [
        65531
      ],
      "min": [
        0
      ],
      "type": "SCALAR"
    },
    {
      "bufferView": 2,
      "byteOffset": 3145536,
      "componentType": 5126,
      "count": 65532,
      "max": [
        0.81512099504470825,
        11.311603546142578,
        1.3602490425109863
      ],
      "min": [
        -0.4512450098991394,
        8.7762088775634766,
        -1.0057239532470703
      ],
      "type": "VEC3"
    },
    {
      "bufferView": 2,
      "byteOffset": 3931920,
      "componentType": 5126,
      "count": 65532,
      "max": [
        0.99996298551559448,
        0.99965900182723999,
        0.99995899200439453
      ],
      "min": [
        -0.99999034404754639,
        -0.99998199939727783,
        -0.99997085332870483
      ],
      "type": "VEC3"
    },
    {
      "bufferView": 1,
      "byteOffset": 1048512,
      "componentType": 5126,
      "count": 65532,
      "max": [
        1,
        0.99891000986099243
      ],
      "min": [
        0,
        0.0050780000165104866
      ],
      "type": "VEC2"
    },
    {
      "bufferView": 0,
      "byteOffset": 2375112,
      "componentType": 5125,
      "count": 287466,
      "max": [
        65531
      ],
      "min": [
        0
      ],
      "type": "SCALAR"
    },
    {
      "bufferView": 2,
      "byteOffset": 4718304,
      "componentType": 5126,
      "count": 65532,
      "max": [
        0.67579299211502075,
        12.067455291748047,
        1.5514860153198242
      ],
      "min": [
        -1.1530499458312988,
        9.3053274154663086,
        -0.88987398147583008
      ],
      "type": "VEC3"
    },
    {
      "bufferView": 2,
      "byteOffset": 5504688,
      "componentType": 5126,
      "count": 65532,
      "max": [
        0.99996167421340942,
        0.99964332580566406,
        0.999969482421875
      ],
      "min": [
        -0.99998122453689575,
        -0.99994522333145142,
        -0.99993908405303955
      ],
      "type": "VEC3"
    },
    {
      "bufferView": 1,
      "byteOffset": 1572768,
      "componentType": 5126,
      "count": 65532,
      "max": [
        0.9984239935874939,
        0.9993249773979187
      ],
      "min": [
        0.00076399999670684338,
        0.0083680003881454468
      ],
      "type": "VEC2"
    },
    {
      "bufferView": 0,
      "byteOffset": 3524976,
      "componentType": 5125,
      "count": 300543,
      "max": [
        65531
      ],
      "min": [
        0
      ],
      "type": "SCALAR"
    },
    {
      "bufferView": 2,
      "byteOffset": 6291072,
      "componentType": 5126,
      "count": 65532,
      "max": [
        0.5837249755859375,
        12.17716121673584,
        1.5579509735107422
      ],
      "min": [
        -1.4551819562911987,
        9.6379108428955078,
        -0.86715197563171387
      ],
      "type": "VEC3"
    },
    {
      "bufferView": 2,
      "byteOffset": 7077456,
      "componentType": 5126,
      "count": 65532,
      "max": [
        0.99997013807296753,
        0.99969744682312012,
        0.99994128942489624
      ],
      "min": [
        -0.99998337030410767,
        -0.99996793270111084,
        -0.99996656179428101
      ],
      "type": "VEC3"
    },
    {
      "bufferView": 1,
      "byteOffset": 2097024,
      "componentType": 5126,
      "count": 65532,
      "max": [
        1,
        1
      ],
      "min": [
        0.0067340000532567501,
        0.00824000034481287
      ],
      "type": "VEC2"
    },
    {
      "bufferView": 0,
      "byteOffset": 4727148,
      "componentType": 5125,
      "count": 279105,
      "max": [
        65531
      ],
      "min": [
        0
      ],
      "type": "SCALAR"
    },
    {
      "bufferView": 2,
      "byteOffset": 7863840,
      "componentType": 5126,
      "count": 65532,
      "max": [
        0.29893898963928223,
        12.215167045593262,
        1.6534149646759033
      ],
      "min": [
        -1.7044329643249512,
        9.8916473388671875,
        -0.88002002239227295
      ],
      "type": "VEC3"
    },
    {
      "bufferView": 2,
      "byteOffset": 8650224,
      "componentType": 5126,
      "count": 65532,
      "max": [
        0.99999713897705078,
        0.9998481273651123,
        0.99998891353607178
      ],
      "min": [
        -0.99991071224212646,
        -0.99998599290847778,
        -0.99995511770248413
      ],
      "type": "VEC3"
    },
    {
      "bufferView": 1,
      "byteOffset": 2621280,
      "componentType": 5126,
      "count": 65532,
      "max": [
        0.99806201457977295,
        0.99874198436737061
      ],
      "min": [
        0,
        0
      ],
      "type": "VEC2"
    },
    {
      "bufferView": 0,
      "byteOffset": 5843568,
      "componentType": 5125,
      "count": 278697,
      "max": [
        65531
      ],
      "min": [
        0
      ],
      "type": "SCALAR"
    },
    {
      "bufferView": 2,
      "byteOffset": 9436608,
      "componentType": 5126,
      "count": 30324,
      "max": [
        -0.94968199729919434,
        11.408002853393555,
        1.5958219766616821
      ],
      "min": [
        -1.7042380571365356,
        10.293508529663086,
        -0.54573297500610352
      ],
      "type": "VEC3"
    },
    {
      "bufferView": 2,
      "byteOffset": 9800496,
      "componentType": 5126,
      "count": 30324,
      "max": [
        0.99999463558197021,
        0.99896508455276489,
        0.99996000528335571
      ],
      "min": [
        -0.99989187717437744,
        -0.99984759092330933,
        -0.99998652935028076
      ],
      "type": "VEC3"
    },
    {
      "bufferView": 1,
      "byteOffset": 3145536,
      "componentType": 5126,
      "count": 30324,
      "max": [
        0.99740797281265259,
        0.99885302782058716
      ],
      "min": [
        0.00082999997539445758,
        0.012054000049829483
      ],
      "type": "VEC2"
    },
    {
      "bufferView": 0,
      "byteOffset": 6958356,
      "componentType": 5125,
      "count": 114714,
      "max": [
        30323
      ],
      "min": [
        0
      ],
      "type": "SCALAR"
    }
  ],
  "asset": {
    "extras": {
      "author": "Digital Atlas of Ancient Life (https://sketchfab.com/DigitalAtlasOfAncientLife)",
      "license": "CC0-1.0 (http://creativecommons.org/publicdomain/zero/1.0/)",
      "source": "https://sketchfab.com/3d-models/vertebrate-tyrannosaurus-rex-skull-mote-cf48487de55d454b8adc92dce2840a0d",
      "title": "Vertebrate: Tyrannosaurus rex skull (MOTE)"
    },
    "generator": "Sketchfab-7.80.0",
    "version": "2.0"
  },
  "bufferViews": [
    {
      "buffer": 0,
      "byteLength": 7417212,
      "byteOffset": 0,
      "name": "floatBufferViews",
      "target": 34963
    },
    {
      "buffer": 0,
      "byteLength": 3388128,
      "byteOffset": 7417212,
      "byteStride": 8,
      "name": "floatBufferViews",
      "target": 34962
    },
    {
      "buffer": 0,
      "byteLength": 10164384,
      "byteOffset": 10805340,
      "byteStride": 12,
      "name": "floatBufferViews",
      "target": 34962
    }
  ],
  "buffers": [
    {
      "byteLength": 20969724,
      "uri": "scene.bin"
    }
  ],
  "extensionsUsed": [
    "KHR_materials_unlit"
  ],
  "images": [
    {
      "uri": "textures/PRI_TyrannosaurusRexSkull_baseColor.jpeg"
    }
  ],
  "materials": [
    {
      "doubleSided": true,
      "emissiveFactor": [
        0,
        0,
        0
      ],
      "extensions": {
        "KHR_materials_unlit": {}
      },
      "name": "PRI_TyrannosaurusRexSkull",
      "pbrMetallicRoughness": {
        "baseColorFactor": [
          1,
          1,
          1,
          1
        ],
        "baseColorTexture": {
          "index": 0,
          "texCoord": 0
        },
        "metallicFactor": 0,
        "roughnessFactor": 1
      }
    }
  ],
  "meshes": [
    {
      "primitives": [
        {
          "attributes": {
            "NORMAL": 1,
            "POSITION": 0,
            "TEXCOORD_0": 2
          },
          "indices": 3,
          "material": 0,
          "mode": 4
        }
      ]
    },
    {
      "primitives": [
        {
          "attributes": {
            "NORMAL": 5,
            "POSITION": 4,
            "TEXCOORD_0": 6
          },
          "indices": 7,
          "material": 0,
          "mode": 4
        }
      ]
    },
    {
      "primitives": [
        {
          "attributes": {
            "NORMAL": 9,
            "POSITION": 8,
            "TEXCOORD_0": 10
          },
          "indices": 11,
          "material": 0,
          "mode": 4
        }
      ]
    },
    {
      "primitives": [
        {
          "attributes": {
            "NORMAL": 13,
            "POSITION": 12,
            "TEXCOORD_0": 14
          },
          "indices": 15,
          "material": 0,
          "mode": 4
        }
      ]
    },
    {
      "primitives": [
        {
          "attributes": {
            "NORMAL": 17,
            "POSITION": 16,
            "TEXCOORD_0": 18
          },
          "indices": 19,
          "material": 0,
          "mode": 4
        }
      ]
    },
    {
      "primitives": [
        {
          "attributes": {
            "NORMAL": 21,
            "POSITION": 20,
            "TEXCOORD_0": 22
          },
          "indices": 23,
          "material": 0,
          "mode": 4
        }
      ]
    },
    {
      "primitives": [
        {
          "attributes": {
            "NORMAL": 25,
            "POSITION": 24,
            "TEXCOORD_0": 26
          },
          "indices": 27,
          "material": 0,
          "mode": 4
        }
      ]
    }
  ],
  "nodes": [
    {
      "children": [
        1
      ],
      "name": "RootNode (gltf orientation matrix)",
      "rotation": [
        -0.70710678118654746,
        -0,
        -0,
        0.70710678118654757
      ]
    },
    {
      "children": [
        2
      ],
      "matrix": [
        0.84927457571029663,
        -0.5256340503692627,
        0.049412243068218231,
        0,
        0.52795141935348511,
        0.84554678201675415,
        -0.07948564738035202,
        0,
        4.5102810375396984e-17,
        0.093592405319213867,
        0.99561059474945068,
        0,
        -5.493743896484375,
        1.4458067417144775,
        0.83467930555343628,
        1
      ],
      "name": "RootNode (model correction matrix)"
    },
    {
      "children": [
        3,
        4,
        5,
        6,
        7,
        8,
        9
      ],
      "name": "PRI_TyrannosaurusRexSkull.obj.cleaner.materialmerger.gles"
    },
    {
      "mesh": 0,
      "name": ""
    },
    {
      "mesh": 1,
      "name": ""
    },
    {
      "mesh": 2,
      "name": ""
    },
    {
      "mesh": 3,
      "name": ""
    },
    {
      "mesh": 4,
      "name": ""
    },
    {
      "mesh": 5,
      "name": ""
    },
    {
      "mesh": 6,
      "name": ""
    }
  ],
  "samplers": [
    {
      "magFilter": 9729,
      "minFilter": 9987,
      "wrapS": 10497,
      "wrapT": 10497
    }
  ],
  "scene": 0,
  "scenes": [
    {
      "name": "OSG_Scene",
      "nodes": [
        0
      ]
    }
  ],
  "textures": [
    {
      "sampler": 0,
      "source": 0
    }
  ]
}

